<svg xmlns="http://www.w3.org/2000/svg" version="1.1" xmlns:xlink="http://www.w3.org/1999/xlink" xmlns:svgjs="http://svgjs.dev/svgjs" width="1500" height="1500" viewBox="0 0 1500 1500"><g transform="matrix(1,0,0,1,0,0)"><svg viewBox="0 0 280 280" data-background-color="#ffffff" preserveAspectRatio="xMidYMid meet" height="1500" width="1500" xmlns="http://www.w3.org/2000/svg" xmlns:xlink="http://www.w3.org/1999/xlink"><g id="tight-bounds" transform="matrix(1,0,0,1,0,0)"><svg viewBox="0 0 280 280" height="280" width="280"><g><svg viewBox="0 0 280 280" height="280" width="280"><g><svg viewBox="0 0 280 280" height="280" width="280"><g id="textblocktransform"><svg viewBox="0 0 280 280" height="280" width="280" id="textblock"><g><svg viewBox="0 0 280 280" height="280" width="280"><g transform="matrix(1,0,0,1,103.46785809262492,74.00336708925556)"><svg viewBox="0 0 73.06428381475015 131.99326582148888" height="131.99326582148888" width="73.06428381475015"><g id="icon-0"><svg xmlns="http://www.w3.org/2000/svg" xmlns:xlink="http://www.w3.org/1999/xlink" version="1.1" x="0" y="0" viewBox="21.673912600443163 2 45.33316567365833 81.896" enable-background="new 0 0 90 90" xml:space="preserve" height="131.99326582148888" width="73.06428381475015" class="icon-jxe-0" data-fill-palette-color="accent" id="jxe-0"><g fill="#3ca323" data-fill-palette-color="accent"><g fill="#3ca323" data-fill-palette-color="accent"><path d="M62.448 47.599A22.87 22.87 0 0 0 52.065 39.92V25.988H52.251A4.09 4.09 0 0 0 56.334 21.893C56.334 19.643 54.501 17.798 52.251 17.798H36.429C34.179 17.798 32.346 19.642 32.346 21.893A4.09 4.09 0 0 0 36.429 25.988H36.615V39.92A22.86 22.86 0 0 0 26.233 47.599 22.47 22.47 0 0 0 21.674 61.23C21.674 73.735 31.847 83.896 44.341 83.896 56.846 83.896 67.007 73.735 67.007 61.23A22.48 22.48 0 0 0 62.448 47.599M36.429 24.353A2.46 2.46 0 0 1 33.97 21.894 2.46 2.46 0 0 1 36.429 19.435H52.251A2.46 2.46 0 0 1 54.711 21.894 2.46 2.46 0 0 1 52.251 24.353zM44.34 82.271C32.717 82.271 23.298 72.851 23.298 61.229 23.298 51.728 29.596 43.701 38.25 41.091V25.988H50.43V41.092C59.083 43.701 65.383 51.729 65.383 61.23 65.383 72.852 55.964 82.271 44.34 82.271" fill="#3ca323" data-fill-palette-color="accent"></path><path d="M30.338 53.899C30.167 53.899 29.995 53.866 29.828 53.793A1.3 1.3 0 0 1 29.136 52.084 13.49 13.49 0 0 1 39.41 44.011 1.306 1.306 0 0 1 39.833 46.586 10.89 10.89 0 0 0 31.538 53.105 1.3 1.3 0 0 1 30.338 53.899" fill="#3ca323" data-fill-palette-color="accent"></path><path d="M55.623 6.231C55.007 6.231 54.533 6.027 54.198 5.623 53.865 5.22 53.751 4.706 53.862 4.093 54.107 2.699 54.943 2 56.368 2 56.952 2 57.41 2.202 57.745 2.609 58.078 3.013 58.191 3.507 58.09 4.092 57.839 5.518 57.016 6.231 55.623 6.231" fill="#3ca323" data-fill-palette-color="accent"></path><path d="M48.099 13.466C47.045 13.466 46.232 13.117 45.662 12.425 45.091 11.733 44.899 10.858 45.085 9.806 45.506 7.423 46.937 6.231 49.374 6.231 50.37 6.231 51.155 6.578 51.726 7.27 52.297 7.963 52.497 8.81 52.32 9.806 51.889 12.244 50.479 13.466 48.099 13.466" fill="#3ca323" data-fill-palette-color="accent"></path><path d="M56.902 67.725A1.63 1.63 0 0 0 56.299 68.978C56.299 69.953 57.227 70.742 58.363 70.742H59.465C56.368 75.858 50.754 79.279 44.339 79.279 34.584 79.279 26.672 71.369 26.672 61.601 26.672 51.845 36.289 59.652 43.469 55.418 50.789 51.091 59.431 51.59 61.531 58.247H58.364C57.797 58.247 57.274 58.444 56.902 58.759 56.531 59.084 56.299 59.525 56.299 60.023 56.299 60.998 57.227 61.787 58.363 61.787H62.006A17.2 17.2 0 0 1 61.102 67.204H58.364A2.22 2.22 0 0 0 56.902 67.725" fill="#3ca323" data-fill-palette-color="accent"></path></g></g></svg></g></svg></g><g id="text-0"><path d="M15.078 89.528l-2.683 8.341-2.852-0.917 2.991-9.298c0.151-0.051 0.364-0.082 0.638-0.094 0.278-0.003 0.578 0.047 0.901 0.151v0c0.464 0.149 0.784 0.38 0.96 0.693 0.17 0.311 0.185 0.685 0.044 1.124zM6.978 95.445v0l5.132 1.65-1.116 3.47-5.306-1.706c-1.72-0.553-3.014-1.318-3.881-2.294-0.867-0.976-1.365-2.135-1.494-3.477-0.134-1.351 0.062-2.846 0.588-4.483v0c0.537-1.669 1.18-2.906 1.929-3.709 0.745-0.813 1.436-1.117 2.074-0.912v0c0.322 0.104 0.595 0.262 0.818 0.476 0.221 0.22 0.41 0.484 0.567 0.791v0c-0.46 0.435-0.913 1.015-1.359 1.738-0.442 0.732-0.78 1.463-1.014 2.191v0c-0.574 1.785-0.61 3.146-0.108 4.083 0.509 0.939 1.565 1.666 3.17 2.182zM26.392 105.517l-17.321-5.57 1.128-3.509 18.597 5.981c0.012 0.16 0.006 0.4-0.018 0.719-0.016 0.315-0.08 0.646-0.192 0.995v0c-0.199 0.619-0.476 1.049-0.831 1.29-0.348 0.243-0.803 0.275-1.363 0.094z" fill="#1746e0" data-fill-palette-color="primary"></path><path d="M48.435 63.347l-8.412-6.665 2.719-2.548 9.032 7.157c-0.049 0.16-0.139 0.382-0.27 0.667-0.13 0.294-0.308 0.585-0.535 0.872v0c-0.404 0.509-0.812 0.812-1.224 0.908-0.412 0.106-0.848-0.025-1.31-0.391zM29.492 43.635l14.627 11.59-2.687 2.573-15.279-12.107c0.045-0.155 0.139-0.382 0.282-0.683 0.143-0.301 0.32-0.584 0.53-0.849v0c0.416-0.525 0.826-0.835 1.23-0.93 0.409-0.091 0.841 0.045 1.297 0.406z" fill="#1746e0" data-fill-palette-color="primary"></path><path d="M75.4 31.931v0l-2.006-3.682 3.236-1.763 1.919 3.521c0.939 1.724 2.075 2.712 3.408 2.965 1.327 0.256 2.798-0.057 4.415-0.938v0c1.082-0.59 1.938-1.203 2.57-1.84 0.629-0.643 1.093-1.205 1.394-1.685v0l-3.989-7.319 3.237-1.764 3.925 7.203c0.308 0.565 0.48 1.057 0.516 1.477 0.036 0.42-0.144 0.946-0.539 1.578v0c-0.397 0.671-1.063 1.473-1.996 2.405-0.931 0.923-2.163 1.803-3.696 2.639v0c-1.783 0.972-3.444 1.538-4.984 1.698-1.542 0.154-2.935-0.139-4.179-0.879-1.244-0.741-2.321-1.946-3.231-3.616zM85.838 12.552l4.892 8.978-3.236 1.764-5.558-10.199c0.102-0.125 0.277-0.298 0.527-0.519 0.25-0.221 0.52-0.411 0.811-0.569v0c0.594-0.324 1.096-0.451 1.504-0.381 0.412 0.076 0.765 0.385 1.06 0.926zM72.884 19.612l4.892 8.977-3.236 1.764-5.558-10.199c0.108-0.128 0.286-0.302 0.536-0.523 0.244-0.218 0.529-0.415 0.856-0.594v0c0.565-0.308 1.051-0.426 1.459-0.356 0.406 0.08 0.756 0.39 1.051 0.931z" fill="#1746e0" data-fill-palette-color="primary"></path><path d="M148.228 10.881v0c0.081 2.273-0.279 4.267-1.078 5.982-0.799 1.722-1.964 3.07-3.494 4.045-1.537 0.976-3.364 1.501-5.481 1.576v0c-2.117 0.075-3.984-0.319-5.6-1.183-1.616-0.864-2.883-2.126-3.801-3.787-0.919-1.654-1.418-3.617-1.499-5.89v0c-0.082-2.307 0.287-4.311 1.107-6.013 0.813-1.702 1.995-3.041 3.546-4.017 1.543-0.983 3.36-1.511 5.45-1.585v0c2.09-0.074 3.933 0.325 5.529 1.196 1.602 0.864 2.869 2.116 3.8 3.756 0.932 1.64 1.439 3.613 1.521 5.92zM137.486 3.053v0c-2.056 0.073-3.664 0.858-4.824 2.355-1.166 1.504-1.704 3.532-1.613 6.082v0c0.091 2.577 0.754 4.565 1.99 5.964 1.235 1.399 2.911 2.061 5.028 1.986v0c2.09-0.074 3.698-0.859 4.823-2.355 1.132-1.503 1.653-3.526 1.563-6.07v0c-0.09-2.55-0.753-4.535-1.989-5.954-1.229-1.413-2.888-2.082-4.978-2.008z" fill="#1746e0" data-fill-palette-color="primary"></path><path d="M182.642 27.971l3.697-10.075 3.271 1.784-3.969 10.819c-0.167 0.004-0.407-0.012-0.719-0.047-0.32-0.031-0.652-0.109-0.995-0.236v0c-0.61-0.224-1.025-0.517-1.245-0.878-0.229-0.358-0.242-0.814-0.04-1.367zM195.434 3.81l-6.429 17.519-3.285-1.746 6.716-18.301c0.161-0.006 0.407 0.012 0.737 0.054 0.331 0.042 0.655 0.121 0.972 0.238v0c0.629 0.231 1.052 0.523 1.269 0.877 0.214 0.36 0.221 0.813 0.02 1.359z" fill="#1746e0" data-fill-palette-color="primary"></path><path d="M222.824 52.868v0c0.945 0.882 1.818 1.515 2.616 1.898 0.789 0.384 1.403 0.614 1.842 0.691v0l4.556-4.886-4.589-3.461c-1.251-1-2.355-1.549-3.311-1.645-0.961-0.101-1.821 0.255-2.578 1.067v0c-0.771 0.827-1.046 1.787-0.826 2.881 0.225 1.089 0.988 2.24 2.29 3.455zM236.09 38.584v0c1.95 1.819 3.091 3.702 3.422 5.649 0.326 1.943-0.392 3.859-2.156 5.75v0l-7.444 7.982c-0.462 0.495-0.907 0.783-1.335 0.866-0.433 0.077-0.946 0.052-1.54-0.076v0c-0.812-0.211-1.781-0.611-2.908-1.199-1.132-0.593-2.259-1.413-3.383-2.461v0c-2.109-1.967-3.354-3.906-3.737-5.818-0.383-1.912 0.16-3.655 1.628-5.229v0c1.362-1.46 2.893-2.119 4.594-1.977 1.7 0.132 3.488 0.925 5.362 2.377v0l5.226 3.999 0.879-0.943c1.048-1.124 1.478-2.259 1.29-3.407-0.193-1.143-0.864-2.25-2.013-3.32v0c-0.921-0.859-1.926-1.547-3.017-2.065-1.095-0.513-2.127-0.905-3.094-1.178v0c-0.03-0.325-0.021-0.663 0.029-1.014 0.055-0.347 0.186-0.631 0.394-0.854v0c0.545-0.584 1.289-0.732 2.233-0.444v0c0.904 0.251 1.833 0.664 2.788 1.239 0.954 0.575 1.881 1.283 2.782 2.123z" fill="#1746e0" data-fill-palette-color="primary"></path><path d="M269.906 90.288v0c0.705 1.774 0.958 3.516 0.757 5.228-0.192 1.715-0.897 3.285-2.116 4.709-1.216 1.43-3.009 2.617-5.38 3.56v0c-2.396 0.953-4.533 1.314-6.409 1.085-1.876-0.23-3.48-0.94-4.813-2.129-1.332-1.189-2.39-2.768-3.173-4.737v0c-0.558-1.403-0.891-2.734-0.999-3.996-0.102-1.263-0.097-2.332 0.014-3.207v0c0.165-0.758 0.372-1.317 0.622-1.678 0.253-0.37 0.679-0.674 1.277-0.912v0l14.255-5.669 1.362 3.425-14.256 5.669c-0.142 0.559-0.191 1.307-0.146 2.243 0.047 0.943 0.281 1.943 0.701 2.999v0c0.77 1.937 2.005 3.256 3.705 3.958 1.697 0.695 3.856 0.521 6.479-0.523v0c2.654-1.055 4.35-2.425 5.086-4.109 0.739-1.678 0.739-3.444 0.001-5.3v0c-0.455-1.145-1.078-2.07-1.868-2.775-0.799-0.709-1.596-1.238-2.39-1.585v0l2.528-1.748c0.734 0.436 1.56 1.084 2.478 1.943 0.923 0.857 1.685 2.04 2.285 3.549zM273.955 82.527l-9.331 3.71-1.362-3.425 10.576-4.205c0.114 0.122 0.266 0.32 0.455 0.594 0.187 0.268 0.349 0.575 0.487 0.921v0c0.238 0.598 0.297 1.095 0.178 1.492-0.128 0.393-0.462 0.697-1.003 0.913z" fill="#1746e0" data-fill-palette-color="primary"></path><path d="M0.272 139.244c0-6.514 5.281-11.795 11.795-11.794 6.514 0 11.795 5.281 11.795 11.794 0 6.514-5.281 11.795-11.795 11.795-6.514 0-11.795-5.281-11.795-11.795z" fill="#1746e0" data-fill-palette-color="primary"></path><path d="M256.139 139.244c0-6.514 5.281-11.795 11.794-11.794 6.514 0 11.795 5.281 11.795 11.794 0 6.514-5.281 11.795-11.795 11.795-6.514 0-11.795-5.281-11.794-11.795z" fill="#1746e0" data-fill-palette-color="primary"></path></g><g id="text-1"><path d="M27.766 186.223l-2.952-9.034 3.089-1.009 3.295 10.086c-0.097 0.139-0.266 0.297-0.507 0.475-0.239 0.185-0.532 0.334-0.879 0.448v0c-0.508 0.166-0.939 0.168-1.291 0.005-0.348-0.171-0.6-0.495-0.755-0.971zM31.112 175.869v0l-5.559 1.816-1.227-3.754 5.752-1.88c1.872-0.612 3.498-0.769 4.877-0.472 1.381 0.304 2.558 1.008 3.532 2.115 0.974 1.106 1.751 2.547 2.331 4.323v0c0.591 1.808 0.816 3.304 0.677 4.489-0.14 1.185-0.557 1.891-1.252 2.118v0c-0.347 0.114-0.689 0.147-1.025 0.1-0.329-0.049-0.662-0.161-0.996-0.337v0c0.128-0.676 0.155-1.475 0.081-2.398-0.074-0.923-0.24-1.78-0.498-2.571v0c-0.633-1.937-1.469-3.155-2.509-3.656-1.046-0.499-2.441-0.463-4.184 0.107zM7.63 179.386l18.791-6.14 1.242 3.803-20.171 6.591c-0.117-0.14-0.265-0.355-0.445-0.645-0.187-0.288-0.343-0.625-0.47-1.011v0c-0.217-0.663-0.246-1.212-0.089-1.648 0.157-0.436 0.537-0.752 1.142-0.95z" fill="#6575a8" data-fill-palette-color="secondary"></path><path d="M32.803 227.368l9.151-7.22 2.007 3.512-9.82 7.748c-0.154-0.086-0.367-0.236-0.641-0.452-0.275-0.206-0.535-0.466-0.783-0.779v0c-0.432-0.547-0.651-1.055-0.659-1.524-0.003-0.463 0.245-0.892 0.745-1.285zM58.381 212.283l-15.91 12.553-2.048-3.48 16.62-13.113c0.158 0.091 0.376 0.247 0.653 0.468 0.282 0.226 0.536 0.483 0.763 0.769v0c0.457 0.579 0.683 1.095 0.677 1.548-0.004 0.443-0.256 0.861-0.755 1.255z" fill="#6575a8" data-fill-palette-color="secondary"></path><path d="M71.265 251.694v0l2.198-3.982 3.502 1.933-2.099 3.804c-1.033 1.873-1.278 3.493-0.734 4.86 0.538 1.364 1.685 2.53 3.439 3.498v0c1.167 0.644 2.229 1.068 3.184 1.27 0.955 0.202 1.739 0.302 2.351 0.3v0l4.376-7.929 3.502 1.933-4.302 7.796c-0.337 0.61-0.687 1.055-1.049 1.334-0.363 0.279-0.949 0.423-1.759 0.433v0c-0.849 0.026-1.969-0.116-3.359-0.427-1.39-0.311-2.918-0.926-4.583-1.845v0c-1.926-1.063-3.414-2.255-4.462-3.576-1.043-1.318-1.587-2.762-1.633-4.334-0.049-1.565 0.428-3.255 1.428-5.068zM95.095 249.931l-5.367 9.725-3.502-1.932 6.093-11.041c0.175 0.019 0.436 0.078 0.783 0.177 0.351 0.093 0.686 0.228 1.006 0.404v0c0.646 0.356 1.051 0.743 1.217 1.159 0.171 0.419 0.094 0.922-0.23 1.508zM81.076 242.195l-5.366 9.725-3.503-1.933 6.093-11.04c0.175 0.019 0.436 0.078 0.783 0.177 0.351 0.093 0.701 0.236 1.051 0.429v0c0.61 0.337 1.001 0.715 1.172 1.134 0.171 0.419 0.094 0.922-0.23 1.508z" fill="#6575a8" data-fill-palette-color="secondary"></path><path d="M148.918 268.221v0c-0.095 2.469-0.645 4.602-1.649 6.398-1.004 1.797-2.374 3.163-4.11 4.099-1.743 0.935-3.764 1.359-6.065 1.27v0c-2.3-0.089-4.289-0.667-5.968-1.733-1.673-1.067-2.94-2.535-3.803-4.404-0.863-1.869-1.247-4.038-1.152-6.507v0c0.096-2.496 0.653-4.635 1.67-6.418 1.017-1.776 2.403-3.132 4.16-4.067 1.757-0.935 3.768-1.359 6.033-1.271v0c2.266 0.087 4.232 0.664 5.898 1.731 1.659 1.066 2.931 2.524 3.815 4.374 0.877 1.856 1.267 4.032 1.171 6.528zM137.907 258.885v0c-2.232-0.086-4.038 0.637-5.418 2.169-1.373 1.532-2.113 3.681-2.219 6.448v0c-0.108 2.8 0.447 5.01 1.665 6.628 1.225 1.619 2.987 2.472 5.286 2.561v0c2.266 0.087 4.072-0.636 5.418-2.169 1.346-1.533 2.073-3.686 2.18-6.459v0c0.107-2.766-0.452-4.966-1.677-6.598-1.224-1.632-2.969-2.492-5.235-2.58z" fill="#6575a8" data-fill-palette-color="secondary"></path><path d="M188.672 269.452l-3.934-10.972 3.968-0.786 4.221 11.775c-0.13 0.119-0.341 0.273-0.632 0.464-0.283 0.195-0.612 0.36-0.987 0.494v0c-0.656 0.235-1.208 0.282-1.654 0.14-0.44-0.144-0.767-0.516-0.982-1.115zM182.507 240.404l6.84 19.077-3.951 0.834-7.144-19.928c0.136-0.121 0.353-0.278 0.651-0.47 0.304-0.195 0.628-0.355 0.972-0.478v0c0.695-0.249 1.255-0.299 1.682-0.15 0.419 0.145 0.735 0.517 0.95 1.115z" fill="#6575a8" data-fill-palette-color="secondary"></path><path d="M234.021 239.512v0c1.035-0.945 1.794-1.83 2.277-2.656 0.488-0.831 0.789-1.48 0.901-1.95v0l-4.886-5.354-4.145 4.661c-1.189 1.268-1.881 2.418-2.076 3.449-0.186 1.031 0.125 1.989 0.932 2.874v0c0.835 0.915 1.852 1.297 3.053 1.146 1.2-0.142 2.514-0.865 3.944-2.17zM219.713 223.909v0c2.145-1.957 4.283-3.029 6.414-3.214 2.131-0.185 4.141 0.757 6.03 2.827v0l7.994 8.759c0.497 0.545 0.774 1.053 0.829 1.526 0.046 0.472-0.03 1.022-0.227 1.65v0c-0.293 0.863-0.812 1.882-1.555 3.055-0.739 1.169-1.723 2.315-2.953 3.437v0c-2.315 2.113-4.523 3.293-6.623 3.542-2.105 0.244-3.944-0.496-5.518-2.221v0c-1.46-1.6-2.043-3.313-1.749-5.139 0.299-1.831 1.317-3.699 3.052-5.603v0l4.777-5.309-0.944-1.035c-1.122-1.23-2.311-1.79-3.567-1.679-1.26 0.105-2.518 0.731-3.773 1.876v0c-1.01 0.922-1.843 1.952-2.499 3.091-0.656 1.139-1.172 2.22-1.549 3.242v0c-0.35 0.008-0.712-0.033-1.087-0.121-0.374-0.089-0.673-0.256-0.897-0.501v0c-0.584-0.64-0.676-1.459-0.276-2.456v0c0.35-0.952 0.878-1.919 1.584-2.903 0.706-0.983 1.552-1.925 2.537-2.824z" fill="#6575a8" data-fill-palette-color="secondary"></path><path d="M248.316 180.614v0c0.786-1.916 1.899-3.472 3.339-4.667 1.444-1.186 3.18-1.879 5.208-2.078 2.025-0.194 4.319 0.234 6.881 1.284v0c2.593 1.063 4.539 2.391 5.839 3.985 1.294 1.591 2.012 3.356 2.154 5.293 0.144 1.932-0.22 3.963-1.093 6.093v0c-0.621 1.516-1.366 2.805-2.233 3.868-0.87 1.07-1.679 1.901-2.427 2.495v0c-0.699 0.474-1.284 0.758-1.754 0.85-0.476 0.09-1.036 0.003-1.681-0.261v0l-15.417-6.319 1.518-3.702 15.416 6.32c0.528-0.325 1.129-0.872 1.803-1.642 0.68-0.767 1.254-1.721 1.722-2.861v0c0.86-2.098 0.889-4.061 0.088-5.89-0.804-1.822-2.628-3.316-5.472-4.481v0c-2.868-1.176-5.223-1.384-7.063-0.624-1.847 0.757-3.181 2.138-4.002 4.143v0c-0.506 1.234-0.714 2.429-0.625 3.584 0.083 1.153 0.309 2.164 0.678 3.032v0l-3.301-0.541c-0.249-0.892-0.409-2.018-0.48-3.379-0.069-1.367 0.232-2.868 0.902-4.502zM239.293 183.62l10.099 4.139-1.517 3.702-11.443-4.691c-0.001-0.176 0.028-0.442 0.086-0.798 0.058-0.356 0.163-0.719 0.315-1.089v0c0.264-0.645 0.595-1.077 0.991-1.295 0.39-0.22 0.88-0.21 1.469 0.032z" fill="#6575a8" data-fill-palette-color="secondary"></path></g></svg></g></svg></g></svg></g></svg></g><defs></defs></svg><rect width="280" height="280" fill="none" stroke="none" visibility="hidden"></rect></g></svg></g></svg>